<?xml version="1.0" encoding="UTF-8" standalone="no"?>
<!DOCTYPE svg PUBLIC "-//W3C//DTD SVG 1.1//EN" "http://www.w3.org/Graphics/SVG/1.1/DTD/svg11.dtd">
<!-- Generated by Microsoft Visio, SVG Export mqtt_setup_not_compatible.svg Page-1 -->
<svg xmlns="http://www.w3.org/2000/svg" xmlns:xlink="http://www.w3.org/1999/xlink" xmlns:ev="http://www.w3.org/2001/xml-events"
		xmlns:v="http://schemas.microsoft.com/visio/2003/SVGExtensions/" width="12.6479in" height="5.47863in"
		viewBox="0 0 910.651 394.462" xml:space="preserve" color-interpolation-filters="sRGB" class="st47">
	<v:documentProperties v:langID="1029" v:metric="true" v:viewMarkup="false">
		<v:userDefs>
			<v:ud v:nameU="msvNoAutoConnect" v:val="VT0(1):26"/>
		</v:userDefs>
	</v:documentProperties>

	<style type="text/css">
	<![CDATA[
		.st1 {fill:#556a8a;stroke:none;stroke-linecap:butt;stroke-width:0.75}
		.st2 {fill:#adbdca;stroke:none;stroke-linecap:butt;stroke-width:0.75}
		.st3 {fill:#ffffff;stroke:none;stroke-linecap:butt;stroke-width:0.75}
		.st4 {fill:#bbbcde;fill-opacity:0.6;stroke:none;stroke-linecap:butt;stroke-width:0.75}
		.st5 {fill:none;stroke:#556a8a;stroke-linecap:butt;stroke-width:1.5}
		.st6 {fill:none;stroke:none;stroke-linecap:butt;stroke-width:0.75}
		.st7 {fill:#fcfcfc;stroke:#556a8a;stroke-linecap:butt;stroke-width:1.5}
		.st8 {fill:#aae9fb;stroke:none;stroke-linecap:butt;stroke-width:0.75}
		.st9 {fill:#999999;stroke:none;stroke-linecap:butt;stroke-width:0.75}
		.st10 {fill:#fff2cc;stroke:none;stroke-linecap:round;stroke-linejoin:round;stroke-width:0.75}
		.st11 {stroke:#7f7f7f;stroke-width:1.25}
		.st12 {stroke:#048477;stroke-dasharray:8,4;stroke-linecap:butt;stroke-width:2}
		.st13 {fill:none;stroke:none;stroke-linecap:round;stroke-linejoin:round;stroke-width:0.75}
		.st14 {fill:#595959;font-family:Fira Sans;font-size:1.00001em}
		.st15 {marker-end:url(#mrkr3-81);marker-start:url(#mrkr3-79);stroke:#048477;stroke-linecap:butt;stroke-width:2}
		.st16 {fill:#048477;fill-opacity:1;stroke:#048477;stroke-opacity:1;stroke-width:0.44247787610619}
		.st17 {fill:#595959;font-family:Fira Sans Light;font-size:1.5em}
		.st18 {font-size:0.555557em}
		.st19 {marker-end:url(#mrkr3-112);stroke:#ffc000;stroke-linecap:butt;stroke-width:2}
		.st20 {fill:#ffc000;fill-opacity:1;stroke:#ffc000;stroke-opacity:1;stroke-width:0.44247787610619}
		.st21 {fill:#595959;font-family:Fira Sans Light;font-size:1.00001em;font-style:italic}
		.st22 {fill:#dbeef3;stroke:#31859b;stroke-linecap:round;stroke-linejoin:round;stroke-width:0.75}
		.st23 {fill:#000000;font-family:Fira Sans;font-size:1.00001em}
		.st24 {fill:#d4eae8;stroke:#048477;stroke-linecap:round;stroke-linejoin:round;stroke-width:0.75}
		.st25 {font-size:1em}
		.st26 {fill:#c05046;font-family:Fira Sans Light;font-size:1.00001em;font-style:italic}
		.st27 {marker-end:url(#mrkr3-162);stroke:#0070c0;stroke-linecap:butt;stroke-width:2}
		.st28 {fill:#0070c0;fill-opacity:1;stroke:#0070c0;stroke-opacity:1;stroke-width:0.44247787610619}
		.st29 {fill:#595959;font-size:1em}
		.st30 {marker-start:url(#mrkr3-79);stroke:#048477;stroke-linecap:butt;stroke-width:2}
		.st31 {fill:#556a8a;stroke:#556a8a;stroke-linecap:butt;stroke-width:0.75}
		.st32 {fill:#ffffff;stroke:#556a8a;stroke-linecap:butt;stroke-width:1.5}
		.st33 {fill:#0593ff;stroke:none;stroke-linecap:butt;stroke-width:19.125}
		.st34 {fill:#c05046;stroke:none;stroke-linecap:butt;stroke-width:19.125}
		.st35 {fill:#2bc7f4;stroke:none;stroke-linecap:butt;stroke-width:19.125}
		.st36 {fill:#556a8a;stroke:none;stroke-linecap:butt;stroke-width:19.125}
		.st37 {fill:#e5e5e5;stroke:#7f7f7f;stroke-linecap:round;stroke-linejoin:round;stroke-width:0.75}
		.st38 {fill:#ffffff;stroke:#556a8a;stroke-linecap:round;stroke-linejoin:round;stroke-width:0.75}
		.st39 {fill:#556a8a;stroke:#556a8a;stroke-linecap:round;stroke-linejoin:round;stroke-width:1}
		.st40 {fill:#556a8a;stroke:#556a8a;stroke-linecap:round;stroke-linejoin:round;stroke-width:0.5}
		.st41 {fill:#ffffff;font-family:Fira Sans;font-size:0.499992em}
		.st42 {fill:#c05046;stroke:#c05046;stroke-linecap:round;stroke-linejoin:round;stroke-width:0.75}
		.st43 {fill:#2bc7f4;stroke:none;stroke-linecap:round;stroke-linejoin:round;stroke-width:0.75}
		.st44 {stroke:#556a8a;stroke-linecap:round;stroke-linejoin:round;stroke-width:1.5}
		.st45 {fill:#ffffff;stroke:#7f7f7f;stroke-linecap:round;stroke-linejoin:round;stroke-width:1.5}
		.st46 {fill:#7f7f7f;font-family:Fira Sans;font-size:1.5em}
		.st47 {fill:none;fill-rule:evenodd;font-size:12px;overflow:visible;stroke-linecap:square;stroke-miterlimit:3}
	]]>
	</style>

	<defs id="Markers">
		<g id="lend3">
			<path d="M 2 1 L 0 0 L 2 -1 " style="stroke-linecap:round;stroke-linejoin:round;fill:none"/>
		</g>
		<marker id="mrkr3-79" class="st16" v:arrowType="3" v:arrowSize="2" orient="auto" markerUnits="strokeWidth"
				overflow="visible">
			<use xlink:href="#lend3" transform="scale(2.26) "/>
		</marker>
		<marker id="mrkr3-81" class="st16" v:arrowType="3" v:arrowSize="2" orient="auto" markerUnits="strokeWidth"
				overflow="visible">
			<use xlink:href="#lend3" transform="scale(-2.26,-2.26) "/>
		</marker>
		<marker id="mrkr3-112" class="st20" v:arrowType="3" v:arrowSize="2" orient="auto" markerUnits="strokeWidth"
				overflow="visible">
			<use xlink:href="#lend3" transform="scale(-2.26,-2.26) "/>
		</marker>
		<marker id="mrkr3-162" class="st28" v:arrowType="3" v:arrowSize="2" orient="auto" markerUnits="strokeWidth"
				overflow="visible">
			<use xlink:href="#lend3" transform="scale(-2.26,-2.26) "/>
		</marker>
	</defs>
	<g v:mID="0" v:index="1" v:groupContext="foregroundPage">
		<title>Page-1</title>
		<v:pageProperties v:drawingScale="0.0393701" v:pageScale="0.0393701" v:drawingUnits="24" v:shadowOffsetX="8.50394"
				v:shadowOffsetY="-8.50394"/>
		<g id="group313-1" transform="translate(795.462,-280.107)" v:mID="313" v:groupContext="group">
			<title>Sheet.313</title>
			<g id="group314-2" transform="translate(6.25315,-7.63466)" v:mID="314" v:groupContext="group">
				<title>Monitor #2</title>
				<g id="shape315-3" v:mID="315" v:groupContext="shape" transform="translate(11.4906,-3.38482)">
					<title>polygon299</title>
					<path d="M2.61 391.61 L39.25 391.61 L41.69 394.46 L0 394.46 L2.61 391.61 Z" class="st1"/>
				</g>
				<g id="shape316-5" v:mID="316" v:groupContext="shape" transform="translate(15.4098,-4.09741)">
					<title>polygon301</title>
					<path d="M1.19 393.04 L32.69 393.04 L33.85 394.46 L0 394.46 L1.19 393.04 Z" class="st2"/>
				</g>
				<g id="shape317-7" v:mID="317" v:groupContext="shape" transform="translate(20.7543,-7.66038)">
					<title>polygon303</title>
					<path d="M0 394.46 L22.8 394.46 L20.67 391.97 L2.14 391.97 L0 394.46 Z" class="st1"/>
				</g>
				<g id="shape318-9" v:mID="318" v:groupContext="shape" transform="translate(30.9087,-8.72927)">
					<title>polygon305</title>
					<path d="M0.5 389.47 L2 389.47 L2.49 394.46 L0 394.46 L0.5 389.47 Z" class="st1"/>
				</g>
				<g id="shape319-11" v:mID="319" v:groupContext="shape" transform="translate(58.7889,746.524) rotate(180)">
					<title>rect307</title>
					<path d="M0 393.04 A1.42522 1.42522 -180 0 0 1.43 394.46 L52.02 394.46 A1.42522 1.42522 -180 0 0 53.44 393.04
								 L53.44 366.67 A1.42522 1.42522 -180 0 0 52.02 365.25 L1.43 365.25 A1.42522 1.42522 -180 0 0 -0 366.67
								 L0 393.04 Z" class="st3"/>
				</g>
				<g id="shape320-13" v:mID="320" v:groupContext="shape" transform="translate(5.34445,-37.5893)">
					<title>path309</title>
					<path d="M53.44 391.25 L53.44 394.46 L0 394.46 L0 391.25 A1.42519 1.42519 0 0 1 1.43 389.83 L52.03 389.83 A1.42519
								 1.42519 0 0 1 53.44 391.25 Z" class="st4"/>
				</g>
				<g id="shape321-15" v:mID="321" v:groupContext="shape" transform="translate(5.34445,-13.0048)">
					<title>path311</title>
					<path d="M53.44 393.04 L53.44 389.83 L0 389.83 L0 393.04 A1.42519 1.42519 -180 0 0 1.43 394.46 L52.03 394.46
								 A1.42519 1.42519 -180 0 0 53.44 393.04 Z" class="st4"/>
				</g>
				<g id="shape322-17" v:mID="322" v:groupContext="shape" transform="translate(58.9671,746.702) rotate(180)">
					<title>rect313</title>
					<path d="M0 393.04 A1.42522 1.42522 -180 0 0 1.43 394.46 L52.02 394.46 A1.42522 1.42522 -180 0 0 53.44 393.04
								 L53.44 366.67 A1.42522 1.42522 -180 0 0 52.02 365.25 L1.43 365.25 A1.42522 1.42522 -180 0 0 -0 366.67
								 L0 393.04 Z" class="st5"/>
				</g>
				<g id="shape323-19" v:mID="323" v:groupContext="shape">
					<title>rect315</title>
					<rect x="0" y="349.212" width="65.2023" height="45.2497" class="st6"/>
				</g>
			</g>
			<g id="group324-21" v:mID="324" v:groupContext="group">
				<title>Mobile #2</title>
				<g id="shape325-22" v:mID="325" v:groupContext="shape">
					<title>rect1634</title>
					<path d="M-0 391.83 A2.63217 2.63217 -180 0 0 2.63 394.46 L19.08 394.46 A2.63217 2.63217 -180 0 0 21.71 391.83
								 L21.71 356.95 A2.63217 2.63217 -180 0 0 19.08 354.32 L2.63 354.32 A2.63217 2.63217 -180 0 0 -0 356.95
								 L0 391.83 Z" class="st7"/>
				</g>
				<g id="shape326-24" v:mID="326" v:groupContext="shape" transform="translate(2.6321,-5.92224)">
					<title>rect1636</title>
					<rect x="0" y="365.509" width="16.4507" height="28.9532" class="st8"/>
				</g>
				<g id="shape327-26" v:mID="327" v:groupContext="shape" transform="translate(7.77129,-36.1914)">
					<title>path1638</title>
					<path d="M6.17 394.46 L0.66 394.46 a0.658026 0.658026 0 0 1 -9.32587E-15 -1.31605 L6.17 393.15 a0.658026 0.658026
								 0 0 1 0 1.31605 Z" class="st9"/>
				</g>
				<g id="shape328-28" v:mID="328" v:groupContext="shape" transform="translate(9.87697,-2.6321)">
					<title>path1640</title>
					<path d="M2.41 394.46 L0.21 394.46 C0.09 394.46 0 394.17 0 393.8 C0 393.44 0.1 393.15 0.21 393.15 L2.41 393.15
								 C2.53 393.15 2.63 393.44 2.63 393.8 C2.63 394.17 2.53 394.46 2.41 394.46 Z" class="st9"/>
				</g>
			</g>
		</g>
		<g id="group297-30" transform="translate(43.7339,-172.107)" v:mID="297" v:groupContext="group">
			<title>Sheet.297</title>
			<g id="group298-31" transform="translate(6.25315,-7.63466)" v:mID="298" v:groupContext="group">
				<title>Monitor #2</title>
				<g id="shape299-32" v:mID="299" v:groupContext="shape" transform="translate(11.4906,-3.38482)">
					<title>polygon299</title>
					<path d="M2.61 391.61 L39.25 391.61 L41.69 394.46 L0 394.46 L2.61 391.61 Z" class="st1"/>
				</g>
				<g id="shape300-34" v:mID="300" v:groupContext="shape" transform="translate(15.4098,-4.09741)">
					<title>polygon301</title>
					<path d="M1.19 393.04 L32.69 393.04 L33.85 394.46 L0 394.46 L1.19 393.04 Z" class="st2"/>
				</g>
				<g id="shape301-36" v:mID="301" v:groupContext="shape" transform="translate(20.7543,-7.66038)">
					<title>polygon303</title>
					<path d="M0 394.46 L22.8 394.46 L20.67 391.97 L2.14 391.97 L0 394.46 Z" class="st1"/>
				</g>
				<g id="shape302-38" v:mID="302" v:groupContext="shape" transform="translate(30.9087,-8.72927)">
					<title>polygon305</title>
					<path d="M0.5 389.47 L2 389.47 L2.49 394.46 L0 394.46 L0.5 389.47 Z" class="st1"/>
				</g>
				<g id="shape303-40" v:mID="303" v:groupContext="shape" transform="translate(58.7889,746.524) rotate(180)">
					<title>rect307</title>
					<path d="M0 393.04 A1.42522 1.42522 -180 0 0 1.43 394.46 L52.02 394.46 A1.42522 1.42522 -180 0 0 53.44 393.04
								 L53.44 366.67 A1.42522 1.42522 -180 0 0 52.02 365.25 L1.43 365.25 A1.42522 1.42522 -180 0 0 -0 366.67
								 L0 393.04 Z" class="st3"/>
				</g>
				<g id="shape304-42" v:mID="304" v:groupContext="shape" transform="translate(5.34445,-37.5893)">
					<title>path309</title>
					<path d="M53.44 391.25 L53.44 394.46 L0 394.46 L0 391.25 A1.42519 1.42519 0 0 1 1.43 389.83 L52.03 389.83 A1.42519
								 1.42519 0 0 1 53.44 391.25 Z" class="st4"/>
				</g>
				<g id="shape305-44" v:mID="305" v:groupContext="shape" transform="translate(5.34445,-13.0048)">
					<title>path311</title>
					<path d="M53.44 393.04 L53.44 389.83 L0 389.83 L0 393.04 A1.42519 1.42519 -180 0 0 1.43 394.46 L52.03 394.46
								 A1.42519 1.42519 -180 0 0 53.44 393.04 Z" class="st4"/>
				</g>
				<g id="shape306-46" v:mID="306" v:groupContext="shape" transform="translate(58.9671,746.702) rotate(180)">
					<title>rect313</title>
					<path d="M0 393.04 A1.42522 1.42522 -180 0 0 1.43 394.46 L52.02 394.46 A1.42522 1.42522 -180 0 0 53.44 393.04
								 L53.44 366.67 A1.42522 1.42522 -180 0 0 52.02 365.25 L1.43 365.25 A1.42522 1.42522 -180 0 0 -0 366.67
								 L0 393.04 Z" class="st5"/>
				</g>
				<g id="shape307-48" v:mID="307" v:groupContext="shape">
					<title>rect315</title>
					<rect x="0" y="349.212" width="65.2023" height="45.2497" class="st6"/>
				</g>
			</g>
			<g id="group308-50" v:mID="308" v:groupContext="group">
				<title>Mobile #2</title>
				<g id="shape309-51" v:mID="309" v:groupContext="shape">
					<title>rect1634</title>
					<path d="M-0 391.83 A2.63217 2.63217 -180 0 0 2.63 394.46 L19.08 394.46 A2.63217 2.63217 -180 0 0 21.71 391.83
								 L21.71 356.95 A2.63217 2.63217 -180 0 0 19.08 354.32 L2.63 354.32 A2.63217 2.63217 -180 0 0 -0 356.95
								 L0 391.83 Z" class="st7"/>
				</g>
				<g id="shape310-53" v:mID="310" v:groupContext="shape" transform="translate(2.6321,-5.92224)">
					<title>rect1636</title>
					<rect x="0" y="365.509" width="16.4507" height="28.9532" class="st8"/>
				</g>
				<g id="shape311-55" v:mID="311" v:groupContext="shape" transform="translate(7.77129,-36.1914)">
					<title>path1638</title>
					<path d="M6.17 394.46 L0.66 394.46 a0.658026 0.658026 0 0 1 -9.32587E-15 -1.31605 L6.17 393.15 a0.658026 0.658026
								 0 0 1 0 1.31605 Z" class="st9"/>
				</g>
				<g id="shape312-57" v:mID="312" v:groupContext="shape" transform="translate(9.87697,-2.6321)">
					<title>path1640</title>
					<path d="M2.41 394.46 L0.21 394.46 C0.09 394.46 0 394.17 0 393.8 C0 393.44 0.1 393.15 0.21 393.15 L2.41 393.15
								 C2.53 393.15 2.63 393.44 2.63 393.8 C2.63 394.17 2.53 394.46 2.41 394.46 Z" class="st9"/>
				</g>
			</g>
		</g>
		<g id="shape230-59" v:mID="230" v:groupContext="shape" transform="translate(369.154,-20.7656)">
			<title>Sheet.230</title>
			<rect x="0" y="237.265" width="60.6614" height="157.197" class="st10"/>
		</g>
		<g id="shape128-61" v:mID="128" v:groupContext="shape" transform="translate(793.814,168.496) rotate(90)">
			<title>Sheet.128</title>
			<path d="M0 394.46 L47.18 394.46" class="st11"/>
		</g>
		<g id="shape130-64" v:mID="130" v:groupContext="shape" transform="translate(399.352,-200.923)">
			<title>Sheet.130</title>
			<path d="M0 394.46 L212.6 394.46" class="st12"/>
		</g>
		<g id="shape132-67" v:mID="132" v:groupContext="shape" transform="translate(399.201,-204.892)">
			<title>Sheet.132</title>
			<desc>Setup Wi-Fi Connection</desc>
			<v:textBlock v:margins="rect(4,4,4,4)" v:tabSpace="42.5197"/>
			<v:textRect cx="106.072" cy="386.525" width="212.15" height="15.874"/>
			<rect x="0" y="378.588" width="212.145" height="15.874" class="st13"/>
			<text x="42.45" y="389.52" class="st14" v:langID="1033"><v:paragraph v:spLine="-1" v:horizAlign="1"/><v:tabList/>Setup Wi-Fi Connection</text>		</g>
		<g id="shape129-70" v:mID="129" v:groupContext="shape" transform="translate(1006.41,125.491) rotate(90)">
			<title>Sheet.129</title>
			<path d="M0 394.46 L247.69 394.46" class="st11"/>
		</g>
		<g id="shape140-73" v:mID="140" v:groupContext="shape" transform="translate(610.396,-70.6267) scale(-1,1)">
			<title>Sheet.140</title>
			<path d="M0 394.46 L179.26 394.46" class="st15"/>
		</g>
		<g id="shape160-82" v:mID="160" v:groupContext="shape" transform="translate(365.002,-291.202)">
			<title>Sheet.160</title>
			<desc>SH-GW (MQTT Broker)</desc>
			<v:textBlock v:margins="rect(4,4,4,4)" v:tabSpace="42.5197"/>
			<v:textRect cx="36.8504" cy="376.056" width="73.71" height="36.8108"/>
			<rect x="0" y="357.651" width="73.7008" height="36.8108" class="st13"/>
			<text x="4" y="372.46" class="st17" v:langID="1029"><v:paragraph v:spLine="-0.8"/><v:tabList/>SH-GW<v:newlineChar/><tspan
						x="4" dy="1.44em" class="st18">(MQTT Broker)</tspan></text>		</g>
		<g id="shape161-86" v:mID="161" v:groupContext="shape" transform="translate(561.453,-339.276)">
			<title>Sheet.161</title>
			<desc>New Device (MQTT Client)</desc>
			<v:textBlock v:margins="rect(4,4,4,4)" v:tabSpace="42.5197"/>
			<v:textRect cx="52.5125" cy="376.056" width="105.03" height="36.8108"/>
			<rect x="0" y="357.651" width="105.025" height="36.8108" class="st13"/>
			<text x="6.57" y="372.46" class="st17" v:langID="1033"><v:paragraph v:spLine="-0.8" v:horizAlign="1"/><v:tabList/>New Device<v:newlineChar/><tspan
						x="22.8" dy="1.44em" class="st18" v:langID="1029">(MQTT </tspan><tspan class="st18">Client</tspan><tspan
						class="st18" v:langID="1029">)</tspan></text>		</g>
		<g id="shape210-92" v:mID="210" v:groupContext="shape" transform="translate(770.103,-336.556)">
			<title>Sheet.210</title>
			<desc>Vendor’s App (Web/Mobile App)</desc>
			<v:textBlock v:margins="rect(4,4,4,4)" v:tabSpace="42.5197"/>
			<v:textRect cx="61.0866" cy="376.056" width="122.18" height="36.8108"/>
			<rect x="0" y="357.651" width="122.173" height="36.8108" class="st13"/>
			<text x="8.11" y="372.46" class="st17" v:langID="1033"><v:paragraph v:spLine="-0.8" v:horizAlign="1"/><v:tabList/>Vendor’s App<v:newlineChar/><tspan
						x="20.46" dy="1.44em" class="st18" v:langID="1029">(</tspan><tspan class="st18">Web/Mobile App</tspan><tspan
						class="st18" v:langID="1029">)</tspan></text>		</g>
		<g id="shape213-98" v:mID="213" v:groupContext="shape" transform="translate(1218.86,125.491) rotate(90)">
			<title>Sheet.213</title>
			<path d="M0 394.46 L104.18 394.46" class="st11"/>
		</g>
		<g id="shape215-101" v:mID="215" v:groupContext="shape" transform="translate(18.375,-228.8)">
			<title>Sheet.215</title>
			<desc>MQTT2GO App (Web/Mobile App)</desc>
			<v:textBlock v:margins="rect(4,4,4,4)" v:tabSpace="42.5197"/>
			<v:textRect cx="61.0866" cy="376.056" width="122.18" height="36.8108"/>
			<rect x="0" y="357.651" width="122.173" height="36.8108" class="st13"/>
			<text x="4.9" y="372.46" class="st17" v:langID="1033"><v:paragraph v:spLine="-0.8" v:horizAlign="1"/><v:tabList/>MQTT2GO App<v:newlineChar/><tspan
						x="20.46" dy="1.44em" class="st18" v:langID="1029">(</tspan><tspan class="st18">Web/Mobile App</tspan><tspan
						class="st18" v:langID="1029">)</tspan></text>		</g>
		<g id="shape216-107" v:mID="216" v:groupContext="shape" transform="translate(823.984,-249.679) scale(-1,1)">
			<title>Sheet.216</title>
			<path d="M0 394.46 L210.5 394.46" class="st19"/>
		</g>
		<g id="shape217-113" v:mID="217" v:groupContext="shape" transform="translate(612.174,-250.06)">
			<title>Sheet.217</title>
			<desc>Setup Wi-Fi Credentials</desc>
			<v:textBlock v:margins="rect(4,4,4,4)" v:tabSpace="42.5197"/>
			<v:textRect cx="106.072" cy="386.525" width="212.15" height="15.874"/>
			<rect x="0" y="378.588" width="212.145" height="15.874" class="st13"/>
			<text x="42.33" y="389.52" class="st14" v:langID="1033"><v:paragraph v:spLine="-1" v:horizAlign="1"/><v:tabList/>Setup Wi-Fi Credentials</text>		</g>
		<g id="shape218-116" v:mID="218" v:groupContext="shape" transform="translate(823.798,-218.781) scale(-1,1)">
			<title>Sheet.218</title>
			<path d="M0 394.46 L210.3 394.46" class="st19"/>
		</g>
		<g id="shape219-121" v:mID="219" v:groupContext="shape" transform="translate(612.27,-220.013)">
			<title>Sheet.219</title>
			<desc>Setup MQTT Broker</desc>
			<v:textBlock v:margins="rect(4,4,4,4)" v:tabSpace="42.5197"/>
			<v:textRect cx="106.072" cy="386.525" width="212.15" height="15.874"/>
			<rect x="0" y="378.588" width="212.145" height="15.874" class="st13"/>
			<text x="53.83" y="389.52" class="st14" v:langID="1033"><v:paragraph v:spLine="-1" v:horizAlign="1"/><v:tabList/>Setup MQTT Broker</text>		</g>
		<g id="shape220-124" v:mID="220" v:groupContext="shape" transform="translate(611.919,-200.453)">
			<title>Sheet.220</title>
			<desc>MQTT Broker IP, Password, Login</desc>
			<v:textBlock v:margins="rect(4,4,4,4)" v:tabSpace="42.5197"/>
			<v:textRect cx="106.072" cy="386.525" width="212.15" height="15.874"/>
			<rect x="0" y="378.588" width="212.145" height="15.874" class="st13"/>
			<text x="19.21" y="389.52" class="st21" v:langID="1033"><v:paragraph v:spLine="-1" v:horizAlign="1"/><v:tabList/>MQTT Broker IP, Password, Login</text>		</g>
		<g id="shape221-127" v:mID="221" v:groupContext="shape" transform="translate(612.366,-180.186)">
			<title>Sheet.221</title>
			<path d="M0 394.46 L210.5 394.46" class="st19"/>
		</g>
		<g id="shape222-132" v:mID="222" v:groupContext="shape" transform="translate(611.743,-180.186)">
			<title>Sheet.222</title>
			<desc>Get Device ID</desc>
			<v:textBlock v:margins="rect(4,4,4,4)" v:tabSpace="42.5197"/>
			<v:textRect cx="106.072" cy="386.525" width="212.15" height="15.874"/>
			<rect x="0" y="378.588" width="212.145" height="15.874" class="st13"/>
			<text x="70.03" y="389.52" class="st14" v:langID="1033"><v:paragraph v:spLine="-1" v:horizAlign="1"/><v:tabList/>Get Device ID</text>		</g>
		<g id="shape226-135" v:mID="226" v:groupContext="shape" transform="translate(389.702,-177.962)">
			<title>Sheet.226</title>
			<path d="M0 394.46 L19.36 394.46" class="st11"/>
		</g>
		<g id="shape227-138" v:mID="227" v:groupContext="shape" transform="translate(763.615,228.405) rotate(90)">
			<title>Sheet.227</title>
			<path d="M0 394.46 L144.72 394.46" class="st11"/>
		</g>
		<g id="shape224-141" v:mID="224" v:groupContext="shape" transform="translate(349.311,-166.624)">
			<title>Sheet.224</title>
			<desc>MQTT</desc>
			<v:textBlock v:margins="rect(4,4,4,4)" v:tabSpace="42.5197"/>
			<v:textRect cx="19.7008" cy="383.123" width="39.41" height="22.6772"/>
			<rect x="0" y="371.784" width="39.4016" height="22.6772" class="st22"/>
			<text x="4.59" y="386.72" class="st23" v:langID="1033"><v:paragraph v:horizAlign="1"/><v:tabList/>MQTT</text>		</g>
		<g id="shape228-144" v:mID="228" v:groupContext="shape" transform="translate(824.277,227.838) rotate(90)">
			<title>Sheet.228</title>
			<path d="M0 394.46 L145.29 394.46" class="st11"/>
		</g>
		<g id="shape225-147" v:mID="225" v:groupContext="shape" transform="translate(409.973,-166.624)">
			<title>Sheet.225</title>
			<desc>MQTT</desc>
			<v:textBlock v:margins="rect(4,4,4,4)" v:tabSpace="42.5197"/>
			<v:textRect cx="19.7008" cy="383.123" width="39.41" height="22.6772"/>
			<rect x="0" y="371.784" width="39.4016" height="22.6772" class="st24"/>
			<text x="4.59" y="386.72" class="st23" v:langID="1033"><v:paragraph v:horizAlign="1"/><v:tabList/>MQTT</text>		</g>
		<g id="shape229-150" v:mID="229" v:groupContext="shape" transform="translate(35.3534,365.192) rotate(-90)">
			<title>Sheet.229</title>
			<desc>MQTT2GO &#60;-&#62; Vendor’s MQTT Bridge</desc>
			<v:textBlock v:margins="rect(4,4,4,4)" v:tabSpace="42.5197"/>
			<v:textRect cx="66.6929" cy="364.131" width="133.39" height="60.6614"/>
			<rect x="0" y="333.8" width="133.386" height="60.6614" class="st13"/>
			<text x="5.34" y="361.13" class="st14" v:langID="1033"><v:paragraph v:spLine="-1" v:horizAlign="1"/><v:tabList/>MQTT2GO &#60;-&#62; Vendor’s <tspan
						x="32.32" dy="1em" class="st25">MQTT Bridge</tspan></text>		</g>
		<g id="shape231-154" v:mID="231" v:groupContext="shape" transform="translate(611.743,-162.327)">
			<title>Sheet.231</title>
			<desc>Device ID</desc>
			<v:textBlock v:margins="rect(4,4,4,4)" v:tabSpace="42.5197"/>
			<v:textRect cx="106.072" cy="386.525" width="212.15" height="15.874"/>
			<rect x="0" y="378.588" width="212.145" height="15.874" class="st13"/>
			<text x="81.74" y="389.52" class="st26" v:langID="1033"><v:paragraph v:spLine="-1" v:horizAlign="1"/><v:tabList/>Device ID</text>		</g>
		<g id="shape232-157" v:mID="232" v:groupContext="shape" transform="translate(70.7418,-124.104)">
			<title>Sheet.232</title>
			<path d="M0 394.46 L296.88 394.46" class="st27"/>
		</g>
		<g id="shape234-163" v:mID="234" v:groupContext="shape" transform="translate(70.2992,-124.724)">
			<title>Sheet.234</title>
			<desc>Subscribe to: &#60;home_id&#62;/&#60;gw_id&#62;/add_unsupported</desc>
			<v:textBlock v:margins="rect(4,4,4,4)" v:tabSpace="42.5197"/>
			<v:textRect cx="149.58" cy="379.438" width="299.16" height="30.0473"/>
			<rect x="0" y="364.414" width="299.16" height="30.0473" class="st13"/>
			<text x="5.63" y="382.44" class="st14" v:langID="1033"><v:paragraph v:spLine="-1" v:horizAlign="1"/><v:tabList/>Subscribe<tspan
						class="st25" v:langID="1029"> </tspan>to: &#60;home_id&#62;/&#60;<tspan class="st25" v:langID="1029">gw_id</tspan>&#62;/add_unsupported</text>		</g>
		<g id="shape235-168" v:mID="235" v:groupContext="shape" transform="translate(101.238,-67.6017)">
			<title>Sheet.235</title>
			<desc>Device ID, Vendor, Device Type</desc>
			<v:textBlock v:margins="rect(4,4,4,4)" v:tabSpace="42.5197"/>
			<v:textRect cx="134.11" cy="386.525" width="268.23" height="15.874"/>
			<rect x="0" y="378.588" width="268.221" height="15.874" class="st13"/>
			<text x="53.78" y="389.52" class="st26" v:langID="1033"><v:paragraph v:spLine="-1" v:horizAlign="1"/><v:tabList/>Device ID<tspan
						class="st29">, Vendor, Device Type</tspan></text>		</g>
		<g id="shape236-172" v:mID="236" v:groupContext="shape" transform="translate(429.696,-71.1936)">
			<title>Sheet.236</title>
			<desc>MQTT Connection</desc>
			<v:textBlock v:margins="rect(4,4,4,4)" v:tabSpace="42.5197"/>
			<v:textRect cx="90.8783" cy="386.525" width="181.76" height="15.874"/>
			<rect x="0" y="378.588" width="181.757" height="15.874" class="st13"/>
			<text x="43.23" y="389.52" class="st14" v:langID="1033"><v:paragraph v:spLine="-1" v:horizAlign="1"/><v:tabList/>MQTT Connection</text>		</g>
		<g id="shape237-175" v:mID="237" v:groupContext="shape" transform="translate(70.7418,-47.5929)">
			<title>Sheet.237</title>
			<path d="M0 394.46 L296.9 394.46" class="st27"/>
		</g>
		<g id="shape238-180" v:mID="238" v:groupContext="shape" transform="translate(101.238,-47.3826)">
			<title>Sheet.238</title>
			<desc>MQTT2GO Command</desc>
			<v:textBlock v:margins="rect(4,4,4,4)" v:tabSpace="42.5197"/>
			<v:textRect cx="134.11" cy="386.525" width="268.23" height="15.874"/>
			<rect x="0" y="378.588" width="268.221" height="15.874" class="st13"/>
			<text x="78.98" y="389.52" class="st14" v:langID="1033"><v:paragraph v:spLine="-1" v:horizAlign="1"/><v:tabList/>MQTT2GO Command</text>		</g>
		<g id="shape239-183" v:mID="239" v:groupContext="shape" transform="translate(610.857,-28.107) scale(-1,1)">
			<title>Sheet.239</title>
			<path d="M0 394.46 L180.85 394.46" class="st30"/>
		</g>
		<g id="shape240-188" v:mID="240" v:groupContext="shape" transform="translate(429.783,-28.107)">
			<title>Sheet.240</title>
			<desc>MQTT Vendor’s Command</desc>
			<v:textBlock v:margins="rect(4,4,4,4)" v:tabSpace="42.5197"/>
			<v:textRect cx="90.8783" cy="386.525" width="181.76" height="15.874"/>
			<rect x="0" y="378.588" width="181.757" height="15.874" class="st13"/>
			<text x="21.34" y="389.52" class="st14" v:langID="1033"><v:paragraph v:spLine="-1" v:horizAlign="1"/><v:tabList/>MQTT Vendor’s Command</text>		</g>
		<g id="shape242-191" v:mID="242" v:groupContext="shape" transform="translate(70.2445,-86.1199)">
			<title>Sheet.242</title>
			<path d="M0 394.46 L297.31 394.46" class="st27"/>
		</g>
		<g id="shape243-196" v:mID="243" v:groupContext="shape" transform="translate(70.2306,-85.0394)">
			<title>Sheet.243</title>
			<desc>Publish to: &#60;home_id&#62;/&#60;gw_id&#62;/add_unsupported</desc>
			<v:textBlock v:margins="rect(4,4,4,4)" v:tabSpace="42.5197"/>
			<v:textRect cx="149.58" cy="380.288" width="299.16" height="28.3465"/>
			<rect x="0" y="366.115" width="299.16" height="28.3465" class="st13"/>
			<text x="12.19" y="383.29" class="st14" v:langID="1033"><v:paragraph v:spLine="-1" v:horizAlign="1"/><v:tabList/>Publish<tspan
						class="st25" v:langID="1029"> </tspan>to: &#60;home_id&#62;/&#60;<tspan class="st25" v:langID="1029">gw_id</tspan>&#62;/add_unsupported</text>		</g>
		<g id="group285-201" transform="translate(370.671,-228.8)" v:mID="285" v:groupContext="group">
			<title>Sheet.285</title>
			<g id="group286-202" v:mID="286" v:groupContext="group">
				<title>Wifi_Router</title>
				<g id="shape287-203" v:mID="287" v:groupContext="shape" transform="translate(26.3217,-18.2227)">
					<title>Sheet.287</title>
					<path d="M2.02 394.46 C0.81 394.46 0 393.65 0 392.44 L0 376.24 C0 375.02 0.81 374.21 2.02 374.21 C3.24 374.21
								 4.05 375.02 4.05 376.24 L4.05 392.44 C4.05 393.65 3.24 394.46 2.02 394.46 Z" class="st31"/>
				</g>
				<g id="shape288-205" v:mID="288" v:groupContext="shape" transform="translate(0,-6.07424)">
					<title>Sheet.288</title>
					<path d="M6.07 378.26 L50.62 378.26 C54.06 378.26 56.69 380.9 56.69 384.34 L56.69 388.39 C56.69 391.83 54.06
								 394.46 50.62 394.46 L6.07 394.46 C2.63 394.46 0 391.83 0 388.39 L0 384.34 C0 380.9 2.63 378.26 6.07
								 378.26 Z" class="st32"/>
				</g>
				<g id="shape289-207" v:mID="289" v:groupContext="shape" transform="translate(44.5444,-12.1485)">
					<title>Sheet.289</title>
					<path d="M4.05 394.46 L2.02 394.46 C0.81 394.46 0 393.65 0 392.44 C0 391.22 0.81 390.41 2.02 390.41 L4.05 390.41
								 C5.26 390.41 6.07 391.22 6.07 392.44 C6.07 393.65 5.26 394.46 4.05 394.46 Z" class="st33"/>
				</g>
				<g id="shape290-209" v:mID="290" v:groupContext="shape" transform="translate(36.4454,-12.1485)">
					<title>Sheet.290</title>
					<path d="M4.05 394.46 L2.02 394.46 C0.81 394.46 0 393.65 0 392.44 C0 391.22 0.81 390.41 2.02 390.41 L4.05 390.41
								 C5.26 390.41 6.07 391.22 6.07 392.44 C6.07 393.65 5.26 394.46 4.05 394.46 Z" class="st34"/>
				</g>
				<g id="shape291-211" v:mID="291" v:groupContext="shape" transform="translate(26.3217,-34.4207)">
					<title>Sheet.291</title>
					<path d="M8.1 394.46 C6.88 394.46 6.07 393.65 6.07 392.44 C6.07 390.21 4.25 388.39 2.02 388.39 C0.81 388.39 0
								 387.58 0 386.36 C0 385.15 0.81 384.34 2.02 384.34 C6.48 384.34 10.12 387.98 10.12 392.44 C10.12
								 393.65 9.31 394.46 8.1 394.46 Z" class="st35"/>
				</g>
				<g id="shape292-213" v:mID="292" v:groupContext="shape" transform="translate(26.3217,-34.4207)">
					<title>Sheet.292</title>
					<path d="M14.17 394.46 C12.96 394.46 12.15 393.65 12.15 392.44 C12.15 386.77 7.69 382.31 2.02 382.31 C0.81 382.31
								 0 381.5 0 380.29 C0 379.07 0.81 378.26 2.02 378.26 C9.92 378.26 16.2 384.54 16.2 392.44 C16.2 393.65
								 15.39 394.46 14.17 394.46 Z" class="st35"/>
				</g>
				<g id="shape293-215" v:mID="293" v:groupContext="shape" transform="translate(26.3217,-34.4207)">
					<title>Sheet.293</title>
					<path d="M20.25 394.46 C19.03 394.46 18.22 393.65 18.22 392.44 C18.22 383.53 10.93 376.24 2.02 376.24 C0.81 376.24
								 0 375.43 0 374.21 C0 373 0.81 372.19 2.02 372.19 C13.16 372.19 22.27 381.3 22.27 392.44 C22.27 393.65
								 21.46 394.46 20.25 394.46 Z" class="st35"/>
				</g>
				<g id="shape294-217" v:mID="294" v:groupContext="shape" transform="translate(8.09899,5.68434E-14)">
					<title>Sheet.294</title>
					<path d="M8.1 394.46 L2.02 394.46 C0.81 394.46 0 393.65 0 392.44 C0 391.22 0.81 390.41 2.02 390.41 L8.1 390.41
								 C9.31 390.41 10.12 391.22 10.12 392.44 C10.12 393.65 9.31 394.46 8.1 394.46 Z" class="st36"/>
				</g>
				<g id="shape295-219" v:mID="295" v:groupContext="shape" transform="translate(38.4702,5.68434E-14)">
					<title>Sheet.295</title>
					<path d="M8.1 394.46 L2.02 394.46 C0.81 394.46 0 393.65 0 392.44 C0 391.22 0.81 390.41 2.02 390.41 L8.1 390.41
								 C9.31 390.41 10.12 391.22 10.12 392.44 C10.12 393.65 9.31 394.46 8.1 394.46 Z" class="st36"/>
				</g>
			</g>
			<g id="shape296-221" v:mID="296" v:groupContext="shape" transform="translate(5.87941,-11.3016)">
				<title>Sheet.296</title>
				<rect x="0" y="388.792" width="19.8425" height="5.66929" rx="2.83465" ry="2.83465" class="st37"/>
			</g>
		</g>
		<g id="group329-223" transform="translate(587.855,-278.406)" v:mID="329" v:groupContext="group">
			<title>Sheet.329</title>
			<g id="shape330-224" v:mID="330" v:groupContext="shape" transform="translate(4.15359,3.41061E-13)">
				<title>Sheet.330</title>
				<rect x="0" y="377.5" width="40.1211" height="16.9618" rx="2.83465" ry="2.83465" class="st38"/>
			</g>
			<g id="shape331-226" v:mID="331" v:groupContext="shape" transform="translate(1.38099,-13.0476)">
				<title>Sheet.331</title>
				<rect x="0" y="349.121" width="45.3402" height="45.3402" class="st38"/>
			</g>
			<g id="shape332-228" v:mID="332" v:groupContext="shape" transform="translate(0,-11.9927)">
				<title>Sheet.332</title>
				<path d="M4.52 391.74 A1.63094 1.63094 0 0 1 2.89 390.1 L2.89 351.04 A1.63094 1.63094 0 0 1 4.52 349.41 L43.58 349.41
							 A1.63094 1.63094 0 0 1 45.21 351.04 L45.21 390.1 A1.63094 1.63094 0 0 1 43.58 391.74 L4.52 391.74 ZM1.63
							 394.46 L46.56 394.46 A1.63094 1.63094 -180 0 0 48.19 392.83 L48.19 347.9 A1.63094 1.63094 -180 0 0 46.56
							 346.27 L1.63 346.27 A1.63094 1.63094 -180 0 0 0 347.9 L0 392.83 A1.63094 1.63094 -180 0 0 1.63 394.46
							 Z" class="st39"/>
			</g>
			<g id="shape333-230" v:mID="333" v:groupContext="shape" transform="translate(5.78453,-37.1855)">
				<title>Sheet.333</title>
				<desc>1</desc>
				<v:textBlock v:margins="rect(4,0,4,0)" v:tabSpace="42.5197"/>
				<v:textRect cx="2.60951" cy="389.569" width="5.22" height="9.78565"/>
				<rect x="0" y="384.676" width="5.21901" height="9.78565" class="st40"/>
				<text x="1.31" y="391.37" class="st41" v:langID="1033"><v:paragraph v:horizAlign="1"/><v:tabList/>1</text>			</g>
			<g id="shape334-233" v:mID="334" v:groupContext="shape" transform="translate(13.613,-37.1855)">
				<title>Sheet.334</title>
				<desc>4</desc>
				<v:textBlock v:margins="rect(4,0,4,0)" v:tabSpace="42.5197"/>
				<v:textRect cx="2.60951" cy="389.569" width="5.22" height="9.78565"/>
				<rect x="0" y="384.676" width="5.21901" height="9.78565" class="st40"/>
				<text x="1.01" y="391.37" class="st41" v:langID="1033"><v:paragraph v:horizAlign="1"/><v:tabList/>4</text>			</g>
			<g id="shape335-236" v:mID="335" v:groupContext="shape" transform="translate(21.4416,-37.1855)">
				<title>Sheet.335</title>
				<desc>5</desc>
				<v:textBlock v:margins="rect(4,0,4,0)" v:tabSpace="42.5197"/>
				<v:textRect cx="2.60951" cy="389.569" width="5.22" height="9.78565"/>
				<rect x="0" y="384.676" width="5.21901" height="9.78565" class="st40"/>
				<text x="1.11" y="391.37" class="st41" v:langID="1033"><v:paragraph v:horizAlign="1"/><v:tabList/>5</text>			</g>
			<g id="shape336-239" v:mID="336" v:groupContext="shape" transform="translate(29.2701,-37.1855)">
				<title>Sheet.336</title>
				<desc>9</desc>
				<v:textBlock v:margins="rect(4,0,4,0)" v:tabSpace="42.5197"/>
				<v:textRect cx="2.60951" cy="389.569" width="5.22" height="9.78565"/>
				<rect x="0" y="384.676" width="5.21901" height="9.78565" class="st40"/>
				<text x="1.03" y="391.37" class="st41" v:langID="1033"><v:paragraph v:horizAlign="1"/><v:tabList/>9</text>			</g>
			<g id="shape337-242" v:mID="337" v:groupContext="shape" transform="translate(37.0986,-37.1855)">
				<title>Sheet.337</title>
				<desc>7</desc>
				<v:textBlock v:margins="rect(4,0,4,0)" v:tabSpace="42.5197"/>
				<v:textRect cx="2.60951" cy="389.569" width="5.22" height="9.78565"/>
				<rect x="0" y="384.676" width="5.21901" height="9.78565" class="st42"/>
				<text x="1.28" y="391.37" class="st41" v:langID="1033"><v:paragraph v:horizAlign="1"/><v:tabList/>7</text>			</g>
			<g id="shape338-245" v:mID="338" v:groupContext="shape" transform="translate(20.7892,-20.2237)">
				<title>Sheet.338</title>
				<ellipse cx="3.42498" cy="391.037" rx="3.42498" ry="3.42498" class="st42"/>
			</g>
			<g id="shape339-247" v:mID="339" v:groupContext="shape" transform="translate(11.0035,-21.168)">
				<title>Sheet.339</title>
				<ellipse cx="2.48064" cy="391.981" rx="2.48064" ry="2.48064" class="st43"/>
			</g>
			<g id="shape340-249" v:mID="340" v:groupContext="shape" transform="translate(32.4635,-21.0392)">
				<title>Sheet.340</title>
				<ellipse cx="2.48064" cy="391.981" rx="2.48064" ry="2.48064" class="st43"/>
			</g>
			<g id="shape341-251" v:mID="341" v:groupContext="shape" transform="translate(12.7976,-2.93569)">
				<title>Sheet.341</title>
				<rect x="0" y="387.938" width="22.8332" height="6.52376" rx="3.26188" ry="3.26188" class="st37"/>
			</g>
			<g id="shape342-253" v:mID="342" v:groupContext="shape" transform="translate(5.78453,-51.5377)">
				<title>Sheet.342</title>
				<path d="M0 394.46 L36.15 394.46" class="st44"/>
			</g>
			<g id="shape343-256" v:mID="343" v:groupContext="shape" transform="translate(5.78453,-32.739)">
				<title>Sheet.343</title>
				<path d="M0 394.46 L36.15 394.46" class="st44"/>
			</g>
		</g>
		<g id="group344-259" transform="translate(43.562,-87.0676)" v:mID="344" v:groupContext="group">
			<title>Sheet.344</title>
			<g id="shape345-260" v:mID="345" v:groupContext="shape" transform="translate(0,-0.954847)">
				<title>Sheet.345</title>
				<ellipse cx="9.56693" cy="384.895" rx="9.56693" ry="9.56693" class="st45"/>
			</g>
			<g id="shape346-262" v:mID="346" v:groupContext="shape" transform="translate(0.708666,5.68434E-14)">
				<title>Sheet.346</title>
				<desc>1</desc>
				<v:textBlock v:margins="rect(4,4,4,4)" v:tabSpace="42.5197"/>
				<v:textRect cx="8.32323" cy="384.895" width="16.65" height="19.1339"/>
				<rect x="0" y="375.328" width="16.6465" height="19.1339" class="st13"/>
				<text x="4.43" y="390.29" class="st46" v:langID="1029"><v:paragraph v:horizAlign="1"/><v:tabList/>1</text>			</g>
		</g>
		<g id="shape214-265" v:mID="214" v:groupContext="shape" transform="translate(464.761,230.323) rotate(90)">
			<title>Sheet.214</title>
			<path d="M0 394.46 L142.81 394.46" class="st11"/>
		</g>
	</g>
</svg>
