<?xml version="1.0" encoding="UTF-8" standalone="no"?>
<!DOCTYPE svg PUBLIC "-//W3C//DTD SVG 1.1//EN" "http://www.w3.org/Graphics/SVG/1.1/DTD/svg11.dtd">
<!-- Generated by Microsoft Visio, SVG Export mqtt_setup_not_compatible.svg Page-1 -->
<svg xmlns="http://www.w3.org/2000/svg" xmlns:xlink="http://www.w3.org/1999/xlink" xmlns:ev="http://www.w3.org/2001/xml-events"
		xmlns:v="http://schemas.microsoft.com/visio/2003/SVGExtensions/" width="12.2256in" height="5.45047in"
		viewBox="0 0 880.24 392.434" xml:space="preserve" color-interpolation-filters="sRGB" class="st47">
	<v:documentProperties v:langID="1029" v:metric="true" v:viewMarkup="false">
		<v:userDefs>
			<v:ud v:nameU="msvNoAutoConnect" v:val="VT0(1):26"/>
		</v:userDefs>
	</v:documentProperties>

	<style type="text/css">
	<![CDATA[
		.st1 {fill:#556a8a;stroke:none;stroke-linecap:butt;stroke-width:0.75}
		.st2 {fill:#adbdca;stroke:none;stroke-linecap:butt;stroke-width:0.75}
		.st3 {fill:#ffffff;stroke:none;stroke-linecap:butt;stroke-width:0.75}
		.st4 {fill:#bbbcde;fill-opacity:0.6;stroke:none;stroke-linecap:butt;stroke-width:0.75}
		.st5 {fill:none;stroke:#556a8a;stroke-linecap:butt;stroke-width:1.5}
		.st6 {fill:none;stroke:none;stroke-linecap:butt;stroke-width:0.75}
		.st7 {fill:#fcfcfc;stroke:#556a8a;stroke-linecap:butt;stroke-width:1.5}
		.st8 {fill:#aae9fb;stroke:none;stroke-linecap:butt;stroke-width:0.75}
		.st9 {fill:#999999;stroke:none;stroke-linecap:butt;stroke-width:0.75}
		.st10 {fill:#fff2cc;stroke:none;stroke-linecap:round;stroke-linejoin:round;stroke-width:0.75}
		.st11 {stroke:#7f7f7f;stroke-width:1.25}
		.st12 {stroke:#048477;stroke-dasharray:8,4;stroke-linecap:butt;stroke-width:2}
		.st13 {fill:none;stroke:none;stroke-linecap:round;stroke-linejoin:round;stroke-width:0.75}
		.st14 {fill:#595959;font-family:Fira Sans;font-size:1.00001em}
		.st15 {marker-end:url(#mrkr3-81);marker-start:url(#mrkr3-79);stroke:#048477;stroke-linecap:butt;stroke-width:2}
		.st16 {fill:#048477;fill-opacity:1;stroke:#048477;stroke-opacity:1;stroke-width:0.44247787610619}
		.st17 {fill:#595959;font-family:Fira Sans Light;font-size:1.5em}
		.st18 {font-size:0.555557em}
		.st19 {marker-end:url(#mrkr3-115);stroke:#ffc000;stroke-linecap:butt;stroke-width:2}
		.st20 {fill:#ffc000;fill-opacity:1;stroke:#ffc000;stroke-opacity:1;stroke-width:0.44247787610619}
		.st21 {fill:#595959;font-family:Fira Sans Light;font-size:1.00001em;font-style:italic}
		.st22 {fill:#dbeef3;stroke:#31859b;stroke-linecap:round;stroke-linejoin:round;stroke-width:0.75}
		.st23 {fill:#000000;font-family:Fira Sans;font-size:1.00001em}
		.st24 {fill:#d4eae8;stroke:#048477;stroke-linecap:round;stroke-linejoin:round;stroke-width:0.75}
		.st25 {font-size:1em}
		.st26 {fill:#c05046;font-family:Fira Sans Light;font-size:1.00001em;font-style:italic}
		.st27 {marker-end:url(#mrkr3-165);stroke:#0070c0;stroke-linecap:butt;stroke-width:2}
		.st28 {fill:#0070c0;fill-opacity:1;stroke:#0070c0;stroke-opacity:1;stroke-width:0.44247787610619}
		.st29 {fill:#595959;font-size:1em}
		.st30 {marker-start:url(#mrkr3-79);stroke:#048477;stroke-linecap:butt;stroke-width:2}
		.st31 {fill:#556a8a;stroke:#556a8a;stroke-linecap:butt;stroke-width:0.75}
		.st32 {fill:#ffffff;stroke:#556a8a;stroke-linecap:butt;stroke-width:1.5}
		.st33 {fill:#0593ff;stroke:none;stroke-linecap:butt;stroke-width:19.125}
		.st34 {fill:#c05046;stroke:none;stroke-linecap:butt;stroke-width:19.125}
		.st35 {fill:#2bc7f4;stroke:none;stroke-linecap:butt;stroke-width:19.125}
		.st36 {fill:#556a8a;stroke:none;stroke-linecap:butt;stroke-width:19.125}
		.st37 {fill:#e5e5e5;stroke:#7f7f7f;stroke-linecap:round;stroke-linejoin:round;stroke-width:0.75}
		.st38 {fill:#ffffff;stroke:#556a8a;stroke-linecap:round;stroke-linejoin:round;stroke-width:0.75}
		.st39 {fill:#556a8a;stroke:#556a8a;stroke-linecap:round;stroke-linejoin:round;stroke-width:1}
		.st40 {fill:#556a8a;stroke:#556a8a;stroke-linecap:round;stroke-linejoin:round;stroke-width:0.5}
		.st41 {fill:#ffffff;font-family:Fira Sans;font-size:0.499992em}
		.st42 {fill:#c05046;stroke:#c05046;stroke-linecap:round;stroke-linejoin:round;stroke-width:0.75}
		.st43 {fill:#2bc7f4;stroke:none;stroke-linecap:round;stroke-linejoin:round;stroke-width:0.75}
		.st44 {stroke:#556a8a;stroke-linecap:round;stroke-linejoin:round;stroke-width:1.5}
		.st45 {fill:#ffffff;stroke:#7f7f7f;stroke-linecap:round;stroke-linejoin:round;stroke-width:1.5}
		.st46 {fill:#7f7f7f;font-family:Fira Sans;font-size:1.5em}
		.st47 {fill:none;fill-rule:evenodd;font-size:12px;overflow:visible;stroke-linecap:square;stroke-miterlimit:3}
	]]>
	</style>

	<defs id="Markers">
		<g id="lend3">
			<path d="M 2 1 L 0 0 L 2 -1 " style="stroke-linecap:round;stroke-linejoin:round;fill:none"/>
		</g>
		<marker id="mrkr3-79" class="st16" v:arrowType="3" v:arrowSize="2" orient="auto" markerUnits="strokeWidth"
				overflow="visible">
			<use xlink:href="#lend3" transform="scale(2.26) "/>
		</marker>
		<marker id="mrkr3-81" class="st16" v:arrowType="3" v:arrowSize="2" orient="auto" markerUnits="strokeWidth"
				overflow="visible">
			<use xlink:href="#lend3" transform="scale(-2.26,-2.26) "/>
		</marker>
		<marker id="mrkr3-115" class="st20" v:arrowType="3" v:arrowSize="2" orient="auto" markerUnits="strokeWidth"
				overflow="visible">
			<use xlink:href="#lend3" transform="scale(-2.26,-2.26) "/>
		</marker>
		<marker id="mrkr3-165" class="st28" v:arrowType="3" v:arrowSize="2" orient="auto" markerUnits="strokeWidth"
				overflow="visible">
			<use xlink:href="#lend3" transform="scale(-2.26,-2.26) "/>
		</marker>
	</defs>
	<g v:mID="0" v:index="1" v:groupContext="foregroundPage">
		<title>Page-1</title>
		<v:pageProperties v:drawingScale="0.0393701" v:pageScale="0.0393701" v:drawingUnits="24" v:shadowOffsetX="8.50394"
				v:shadowOffsetY="-8.50394"/>
		<g id="group313-1" transform="translate(771.985,-278.079)" v:mID="313" v:groupContext="group">
			<title>Sheet.313</title>
			<g id="group314-2" transform="translate(6.25315,-7.63466)" v:mID="314" v:groupContext="group">
				<title>Monitor #2</title>
				<g id="shape315-3" v:mID="315" v:groupContext="shape" transform="translate(11.4906,-3.38482)">
					<title>polygon299</title>
					<path d="M2.61 389.58 L39.25 389.58 L41.69 392.43 L0 392.43 L2.61 389.58 Z" class="st1"/>
				</g>
				<g id="shape316-5" v:mID="316" v:groupContext="shape" transform="translate(15.4098,-4.09741)">
					<title>polygon301</title>
					<path d="M1.19 391.01 L32.69 391.01 L33.85 392.43 L0 392.43 L1.19 391.01 Z" class="st2"/>
				</g>
				<g id="shape317-7" v:mID="317" v:groupContext="shape" transform="translate(20.7543,-7.66038)">
					<title>polygon303</title>
					<path d="M0 392.43 L22.8 392.43 L20.67 389.94 L2.14 389.94 L0 392.43 Z" class="st1"/>
				</g>
				<g id="shape318-9" v:mID="318" v:groupContext="shape" transform="translate(30.9087,-8.72927)">
					<title>polygon305</title>
					<path d="M0.5 387.45 L2 387.45 L2.49 392.43 L0 392.43 L0.5 387.45 Z" class="st1"/>
				</g>
				<g id="shape319-11" v:mID="319" v:groupContext="shape" transform="translate(58.7889,742.468) rotate(180)">
					<title>rect307</title>
					<path d="M0 391.01 A1.42522 1.42522 -180 0 0 1.43 392.43 L52.02 392.43 A1.42522 1.42522 -180 0 0 53.44 391.01
								 L53.44 364.64 A1.42522 1.42522 -180 0 0 52.02 363.22 L1.43 363.22 A1.42522 1.42522 -180 0 0 -0 364.64
								 L0 391.01 Z" class="st3"/>
				</g>
				<g id="shape320-13" v:mID="320" v:groupContext="shape" transform="translate(5.34445,-37.5893)">
					<title>path309</title>
					<path d="M53.44 389.23 L53.44 392.43 L0 392.43 L0 389.23 A1.42519 1.42519 0 0 1 1.43 387.8 L52.03 387.8 A1.42519
								 1.42519 0 0 1 53.44 389.23 Z" class="st4"/>
				</g>
				<g id="shape321-15" v:mID="321" v:groupContext="shape" transform="translate(5.34445,-13.0048)">
					<title>path311</title>
					<path d="M53.44 391.01 L53.44 387.8 L0 387.8 L0 391.01 A1.42519 1.42519 -180 0 0 1.43 392.43 L52.03 392.43 A1.42519
								 1.42519 -180 0 0 53.44 391.01 Z" class="st4"/>
				</g>
				<g id="shape322-17" v:mID="322" v:groupContext="shape" transform="translate(58.9671,742.646) rotate(180)">
					<title>rect313</title>
					<path d="M0 391.01 A1.42522 1.42522 -180 0 0 1.43 392.43 L52.02 392.43 A1.42522 1.42522 -180 0 0 53.44 391.01
								 L53.44 364.64 A1.42522 1.42522 -180 0 0 52.02 363.22 L1.43 363.22 A1.42522 1.42522 -180 0 0 -0 364.64
								 L0 391.01 Z" class="st5"/>
				</g>
				<g id="shape323-19" v:mID="323" v:groupContext="shape">
					<title>rect315</title>
					<rect x="0" y="347.184" width="65.2023" height="45.2497" class="st6"/>
				</g>
			</g>
			<g id="group324-21" v:mID="324" v:groupContext="group">
				<title>Mobile #2</title>
				<g id="shape325-22" v:mID="325" v:groupContext="shape">
					<title>rect1634</title>
					<path d="M-0 389.8 A2.63217 2.63217 -180 0 0 2.63 392.43 L19.08 392.43 A2.63217 2.63217 -180 0 0 21.71 389.8
								 L21.71 354.93 A2.63217 2.63217 -180 0 0 19.08 352.29 L2.63 352.29 A2.63217 2.63217 -180 0 0 -0 354.93
								 L0 389.8 Z" class="st7"/>
				</g>
				<g id="shape326-24" v:mID="326" v:groupContext="shape" transform="translate(2.6321,-5.92224)">
					<title>rect1636</title>
					<rect x="0" y="363.48" width="16.4507" height="28.9532" class="st8"/>
				</g>
				<g id="shape327-26" v:mID="327" v:groupContext="shape" transform="translate(7.77129,-36.1914)">
					<title>path1638</title>
					<path d="M6.17 392.43 L0.66 392.43 a0.658026 0.658026 0 0 1 -9.32587E-15 -1.31605 L6.17 391.12 a0.658026 0.658026
								 0 0 1 0 1.31605 Z" class="st9"/>
				</g>
				<g id="shape328-28" v:mID="328" v:groupContext="shape" transform="translate(9.87697,-2.6321)">
					<title>path1640</title>
					<path d="M2.41 392.43 L0.21 392.43 C0.09 392.43 0 392.14 0 391.78 C0 391.41 0.1 391.12 0.21 391.12 L2.41 391.12
								 C2.53 391.12 2.63 391.41 2.63 391.78 C2.63 392.14 2.53 392.43 2.41 392.43 Z" class="st9"/>
				</g>
			</g>
		</g>
		<g id="group297-30" transform="translate(43.7339,-170.079)" v:mID="297" v:groupContext="group">
			<title>Sheet.297</title>
			<g id="group298-31" transform="translate(6.25315,-7.63466)" v:mID="298" v:groupContext="group">
				<title>Monitor #2</title>
				<g id="shape299-32" v:mID="299" v:groupContext="shape" transform="translate(11.4906,-3.38482)">
					<title>polygon299</title>
					<path d="M2.61 389.58 L39.25 389.58 L41.69 392.43 L0 392.43 L2.61 389.58 Z" class="st1"/>
				</g>
				<g id="shape300-34" v:mID="300" v:groupContext="shape" transform="translate(15.4098,-4.09741)">
					<title>polygon301</title>
					<path d="M1.19 391.01 L32.69 391.01 L33.85 392.43 L0 392.43 L1.19 391.01 Z" class="st2"/>
				</g>
				<g id="shape301-36" v:mID="301" v:groupContext="shape" transform="translate(20.7543,-7.66038)">
					<title>polygon303</title>
					<path d="M0 392.43 L22.8 392.43 L20.67 389.94 L2.14 389.94 L0 392.43 Z" class="st1"/>
				</g>
				<g id="shape302-38" v:mID="302" v:groupContext="shape" transform="translate(30.9087,-8.72927)">
					<title>polygon305</title>
					<path d="M0.5 387.45 L2 387.45 L2.49 392.43 L0 392.43 L0.5 387.45 Z" class="st1"/>
				</g>
				<g id="shape303-40" v:mID="303" v:groupContext="shape" transform="translate(58.7889,742.468) rotate(180)">
					<title>rect307</title>
					<path d="M0 391.01 A1.42522 1.42522 -180 0 0 1.43 392.43 L52.02 392.43 A1.42522 1.42522 -180 0 0 53.44 391.01
								 L53.44 364.64 A1.42522 1.42522 -180 0 0 52.02 363.22 L1.43 363.22 A1.42522 1.42522 -180 0 0 -0 364.64
								 L0 391.01 Z" class="st3"/>
				</g>
				<g id="shape304-42" v:mID="304" v:groupContext="shape" transform="translate(5.34445,-37.5893)">
					<title>path309</title>
					<path d="M53.44 389.23 L53.44 392.43 L0 392.43 L0 389.23 A1.42519 1.42519 0 0 1 1.43 387.8 L52.03 387.8 A1.42519
								 1.42519 0 0 1 53.44 389.23 Z" class="st4"/>
				</g>
				<g id="shape305-44" v:mID="305" v:groupContext="shape" transform="translate(5.34445,-13.0048)">
					<title>path311</title>
					<path d="M53.44 391.01 L53.44 387.8 L0 387.8 L0 391.01 A1.42519 1.42519 -180 0 0 1.43 392.43 L52.03 392.43 A1.42519
								 1.42519 -180 0 0 53.44 391.01 Z" class="st4"/>
				</g>
				<g id="shape306-46" v:mID="306" v:groupContext="shape" transform="translate(58.9671,742.646) rotate(180)">
					<title>rect313</title>
					<path d="M0 391.01 A1.42522 1.42522 -180 0 0 1.43 392.43 L52.02 392.43 A1.42522 1.42522 -180 0 0 53.44 391.01
								 L53.44 364.64 A1.42522 1.42522 -180 0 0 52.02 363.22 L1.43 363.22 A1.42522 1.42522 -180 0 0 -0 364.64
								 L0 391.01 Z" class="st5"/>
				</g>
				<g id="shape307-48" v:mID="307" v:groupContext="shape">
					<title>rect315</title>
					<rect x="0" y="347.184" width="65.2023" height="45.2497" class="st6"/>
				</g>
			</g>
			<g id="group308-50" v:mID="308" v:groupContext="group">
				<title>Mobile #2</title>
				<g id="shape309-51" v:mID="309" v:groupContext="shape">
					<title>rect1634</title>
					<path d="M-0 389.8 A2.63217 2.63217 -180 0 0 2.63 392.43 L19.08 392.43 A2.63217 2.63217 -180 0 0 21.71 389.8
								 L21.71 354.93 A2.63217 2.63217 -180 0 0 19.08 352.29 L2.63 352.29 A2.63217 2.63217 -180 0 0 -0 354.93
								 L0 389.8 Z" class="st7"/>
				</g>
				<g id="shape310-53" v:mID="310" v:groupContext="shape" transform="translate(2.6321,-5.92224)">
					<title>rect1636</title>
					<rect x="0" y="363.48" width="16.4507" height="28.9532" class="st8"/>
				</g>
				<g id="shape311-55" v:mID="311" v:groupContext="shape" transform="translate(7.77129,-36.1914)">
					<title>path1638</title>
					<path d="M6.17 392.43 L0.66 392.43 a0.658026 0.658026 0 0 1 -9.32587E-15 -1.31605 L6.17 391.12 a0.658026 0.658026
								 0 0 1 0 1.31605 Z" class="st9"/>
				</g>
				<g id="shape312-57" v:mID="312" v:groupContext="shape" transform="translate(9.87697,-2.6321)">
					<title>path1640</title>
					<path d="M2.41 392.43 L0.21 392.43 C0.09 392.43 0 392.14 0 391.78 C0 391.41 0.1 391.12 0.21 391.12 L2.41 391.12
								 C2.53 391.12 2.63 391.41 2.63 391.78 C2.63 392.14 2.53 392.43 2.41 392.43 Z" class="st9"/>
				</g>
			</g>
		</g>
		<g id="shape230-59" v:mID="230" v:groupContext="shape" transform="translate(345.676,-18.7373)">
			<title>Sheet.230</title>
			<rect x="0" y="235.237" width="60.6614" height="157.197" class="st10"/>
		</g>
		<g id="shape128-61" v:mID="128" v:groupContext="shape" transform="translate(768.308,168.496) rotate(90)">
			<title>Sheet.128</title>
			<path d="M0 392.43 L47.18 392.43" class="st11"/>
		</g>
		<g id="shape130-64" v:mID="130" v:groupContext="shape" transform="translate(375.875,-198.895)">
			<title>Sheet.130</title>
			<path d="M0 392.43 L212.6 392.43" class="st12"/>
		</g>
		<g id="shape132-67" v:mID="132" v:groupContext="shape" transform="translate(375.723,-202.863)">
			<title>Sheet.132</title>
			<desc>Setup Wi-Fi Connection</desc>
			<v:textBlock v:margins="rect(4,4,4,4)" v:tabSpace="42.5197"/>
			<v:textRect cx="106.072" cy="384.496" width="212.15" height="15.874"/>
			<rect x="0" y="376.559" width="212.145" height="15.874" class="st13"/>
			<text x="42.45" y="387.5" class="st14" v:langID="1033"><v:paragraph v:spLine="-1" v:horizAlign="1"/><v:tabList/>Setup Wi-Fi Connection</text>		</g>
		<g id="shape129-70" v:mID="129" v:groupContext="shape" transform="translate(980.907,125.491) rotate(90)">
			<title>Sheet.129</title>
			<path d="M0 392.43 L247.69 392.43" class="st11"/>
		</g>
		<g id="shape140-73" v:mID="140" v:groupContext="shape" transform="translate(586.919,-77.9528) scale(-1,1)">
			<title>Sheet.140</title>
			<path d="M0 392.43 L179.26 392.43" class="st15"/>
		</g>
		<g id="shape160-82" v:mID="160" v:groupContext="shape" transform="translate(341.525,-289.173)">
			<title>Sheet.160</title>
			<desc>SH-GW (MQTT Broker)</desc>
			<v:textBlock v:margins="rect(4,4,4,4)" v:tabSpace="42.5197"/>
			<v:textRect cx="36.8504" cy="374.028" width="73.71" height="36.8108"/>
			<rect x="0" y="355.623" width="73.7008" height="36.8108" class="st13"/>
			<text x="4" y="370.43" class="st17" v:langID="1029"><v:paragraph v:spLine="-0.8"/><v:tabList/>SH-GW<v:newlineChar/><tspan
						x="4" dy="1.44em" class="st18">(MQTT Broker)</tspan></text>		</g>
		<g id="shape161-86" v:mID="161" v:groupContext="shape" transform="translate(537.976,-337.248)">
			<title>Sheet.161</title>
			<desc>New Device (MQTT Client)</desc>
			<v:textBlock v:margins="rect(4,4,4,4)" v:tabSpace="42.5197"/>
			<v:textRect cx="52.5125" cy="374.028" width="105.03" height="36.8108"/>
			<rect x="0" y="355.623" width="105.025" height="36.8108" class="st13"/>
			<text x="6.57" y="370.43" class="st17" v:langID="1033"><v:paragraph v:spLine="-0.8" v:horizAlign="1"/><v:tabList/>New Device<v:newlineChar/><tspan
						x="22.8" dy="1.44em" class="st18" v:langID="1029">(MQTT </tspan><tspan class="st18">Client</tspan><tspan
						class="st18" v:langID="1029">)</tspan></text>		</g>
		<g id="shape210-92" v:mID="210" v:groupContext="shape" transform="translate(746.626,-334.528)">
			<title>Sheet.210</title>
			<desc>Vendor’s App (Web/Mobile App)</desc>
			<v:textBlock v:margins="rect(4,4,4,4)" v:tabSpace="42.5197"/>
			<v:textRect cx="61.0866" cy="374.028" width="122.18" height="36.8108"/>
			<rect x="0" y="355.623" width="122.173" height="36.8108" class="st13"/>
			<text x="8.11" y="370.43" class="st17" v:langID="1033"><v:paragraph v:spLine="-0.8" v:horizAlign="1"/><v:tabList/>Vendor’s App<v:newlineChar/><tspan
						x="20.46" dy="1.44em" class="st18" v:langID="1029">(</tspan><tspan class="st18">Web/Mobile App</tspan><tspan
						class="st18" v:langID="1029">)</tspan></text>		</g>
		<g id="shape213-98" v:mID="213" v:groupContext="shape" transform="translate(1193.35,125.491) rotate(90)">
			<title>Sheet.213</title>
			<path d="M0 392.43 L104.18 392.43" class="st11"/>
		</g>
		<g id="shape214-101" v:mID="214" v:groupContext="shape" transform="translate(470.336,230.323) rotate(90)">
			<title>Sheet.214</title>
			<path d="M0 392.43 L142.81 392.43" class="st11"/>
		</g>
		<g id="shape215-104" v:mID="215" v:groupContext="shape" transform="translate(18.375,-226.772)">
			<title>Sheet.215</title>
			<desc>MQTT2GO App (Web/Mobile App)</desc>
			<v:textBlock v:margins="rect(4,4,4,4)" v:tabSpace="42.5197"/>
			<v:textRect cx="61.0866" cy="374.028" width="122.18" height="36.8108"/>
			<rect x="0" y="355.623" width="122.173" height="36.8108" class="st13"/>
			<text x="4.9" y="370.43" class="st17" v:langID="1033"><v:paragraph v:spLine="-0.8" v:horizAlign="1"/><v:tabList/>MQTT2GO App<v:newlineChar/><tspan
						x="20.46" dy="1.44em" class="st18" v:langID="1029">(</tspan><tspan class="st18">Web/Mobile App</tspan><tspan
						class="st18" v:langID="1029">)</tspan></text>		</g>
		<g id="shape216-110" v:mID="216" v:groupContext="shape" transform="translate(800.507,-247.651) scale(-1,1)">
			<title>Sheet.216</title>
			<path d="M0 392.43 L210.5 392.43" class="st19"/>
		</g>
		<g id="shape217-116" v:mID="217" v:groupContext="shape" transform="translate(588.697,-248.032)">
			<title>Sheet.217</title>
			<desc>Setup Wi-Fi Credentials</desc>
			<v:textBlock v:margins="rect(4,4,4,4)" v:tabSpace="42.5197"/>
			<v:textRect cx="106.072" cy="384.496" width="212.15" height="15.874"/>
			<rect x="0" y="376.559" width="212.145" height="15.874" class="st13"/>
			<text x="42.33" y="387.5" class="st14" v:langID="1033"><v:paragraph v:spLine="-1" v:horizAlign="1"/><v:tabList/>Setup Wi-Fi Credentials</text>		</g>
		<g id="shape218-119" v:mID="218" v:groupContext="shape" transform="translate(800.321,-216.753) scale(-1,1)">
			<title>Sheet.218</title>
			<path d="M0 392.43 L210.3 392.43" class="st19"/>
		</g>
		<g id="shape219-124" v:mID="219" v:groupContext="shape" transform="translate(588.793,-217.984)">
			<title>Sheet.219</title>
			<desc>Setup MQTT Broker</desc>
			<v:textBlock v:margins="rect(4,4,4,4)" v:tabSpace="42.5197"/>
			<v:textRect cx="106.072" cy="384.496" width="212.15" height="15.874"/>
			<rect x="0" y="376.559" width="212.145" height="15.874" class="st13"/>
			<text x="53.83" y="387.5" class="st14" v:langID="1033"><v:paragraph v:spLine="-1" v:horizAlign="1"/><v:tabList/>Setup MQTT Broker</text>		</g>
		<g id="shape220-127" v:mID="220" v:groupContext="shape" transform="translate(588.442,-198.425)">
			<title>Sheet.220</title>
			<desc>MQTT Broker IP, Password, Login</desc>
			<v:textBlock v:margins="rect(4,4,4,4)" v:tabSpace="42.5197"/>
			<v:textRect cx="106.072" cy="384.496" width="212.15" height="15.874"/>
			<rect x="0" y="376.559" width="212.145" height="15.874" class="st13"/>
			<text x="19.21" y="387.5" class="st21" v:langID="1033"><v:paragraph v:spLine="-1" v:horizAlign="1"/><v:tabList/>MQTT Broker IP, Password, Login</text>		</g>
		<g id="shape221-130" v:mID="221" v:groupContext="shape" transform="translate(588.889,-178.157)">
			<title>Sheet.221</title>
			<path d="M0 392.43 L210.5 392.43" class="st19"/>
		</g>
		<g id="shape222-135" v:mID="222" v:groupContext="shape" transform="translate(588.265,-178.157)">
			<title>Sheet.222</title>
			<desc>Get Device ID</desc>
			<v:textBlock v:margins="rect(4,4,4,4)" v:tabSpace="42.5197"/>
			<v:textRect cx="106.072" cy="384.496" width="212.15" height="15.874"/>
			<rect x="0" y="376.559" width="212.145" height="15.874" class="st13"/>
			<text x="70.03" y="387.5" class="st14" v:langID="1033"><v:paragraph v:spLine="-1" v:horizAlign="1"/><v:tabList/>Get Device ID</text>		</g>
		<g id="shape226-138" v:mID="226" v:groupContext="shape" transform="translate(366.225,-175.934)">
			<title>Sheet.226</title>
			<path d="M0 392.43 L19.36 392.43" class="st11"/>
		</g>
		<g id="shape227-141" v:mID="227" v:groupContext="shape" transform="translate(738.11,228.405) rotate(90)">
			<title>Sheet.227</title>
			<path d="M0 392.43 L144.72 392.43" class="st11"/>
		</g>
		<g id="shape224-144" v:mID="224" v:groupContext="shape" transform="translate(325.834,-164.596)">
			<title>Sheet.224</title>
			<desc>MQTT</desc>
			<v:textBlock v:margins="rect(4,4,4,4)" v:tabSpace="42.5197"/>
			<v:textRect cx="19.7008" cy="381.095" width="39.41" height="22.6772"/>
			<rect x="0" y="369.756" width="39.4016" height="22.6772" class="st22"/>
			<text x="4.59" y="384.69" class="st23" v:langID="1033"><v:paragraph v:horizAlign="1"/><v:tabList/>MQTT</text>		</g>
		<g id="shape228-147" v:mID="228" v:groupContext="shape" transform="translate(798.771,227.838) rotate(90)">
			<title>Sheet.228</title>
			<path d="M0 392.43 L145.29 392.43" class="st11"/>
		</g>
		<g id="shape225-150" v:mID="225" v:groupContext="shape" transform="translate(386.495,-164.596)">
			<title>Sheet.225</title>
			<desc>MQTT</desc>
			<v:textBlock v:margins="rect(4,4,4,4)" v:tabSpace="42.5197"/>
			<v:textRect cx="19.7008" cy="381.095" width="39.41" height="22.6772"/>
			<rect x="0" y="369.756" width="39.4016" height="22.6772" class="st24"/>
			<text x="4.59" y="384.69" class="st23" v:langID="1033"><v:paragraph v:horizAlign="1"/><v:tabList/>MQTT</text>		</g>
		<g id="shape229-153" v:mID="229" v:groupContext="shape" transform="translate(13.9041,365.192) rotate(-90)">
			<title>Sheet.229</title>
			<desc>MQTT2GO &#60;-&#62; Vendor’s MQTT Bridge</desc>
			<v:textBlock v:margins="rect(4,4,4,4)" v:tabSpace="42.5197"/>
			<v:textRect cx="66.6929" cy="362.103" width="133.39" height="60.6614"/>
			<rect x="0" y="331.772" width="133.386" height="60.6614" class="st13"/>
			<text x="5.34" y="359.1" class="st14" v:langID="1033"><v:paragraph v:spLine="-1" v:horizAlign="1"/><v:tabList/>MQTT2GO &#60;-&#62; Vendor’s <tspan
						x="32.32" dy="1em" class="st25">MQTT Bridge</tspan></text>		</g>
		<g id="shape231-157" v:mID="231" v:groupContext="shape" transform="translate(588.265,-160.299)">
			<title>Sheet.231</title>
			<desc>Device ID</desc>
			<v:textBlock v:margins="rect(4,4,4,4)" v:tabSpace="42.5197"/>
			<v:textRect cx="106.072" cy="384.496" width="212.15" height="15.874"/>
			<rect x="0" y="376.559" width="212.145" height="15.874" class="st13"/>
			<text x="81.74" y="387.5" class="st26" v:langID="1033"><v:paragraph v:spLine="-1" v:horizAlign="1"/><v:tabList/>Device ID</text>		</g>
		<g id="shape232-160" v:mID="232" v:groupContext="shape" transform="translate(80.0003,-123.058) rotate(0.212373)">
			<title>Sheet.232</title>
			<path d="M0 392.43 L265.61 392.43" class="st27"/>
		</g>
		<g id="shape234-166" v:mID="234" v:groupContext="shape" transform="translate(77.7608,-125.858)">
			<title>Sheet.234</title>
			<desc>Subscribe to: &#60;home_id&#62;/&#60;gw_id&#62;/add_device</desc>
			<v:textBlock v:margins="rect(4,4,4,4)" v:tabSpace="42.5197"/>
			<v:textRect cx="134.11" cy="384.496" width="268.23" height="15.874"/>
			<rect x="0" y="376.559" width="268.221" height="15.874" class="st13"/>
			<text x="7.77" y="387.5" class="st14" v:langID="1033"><v:paragraph v:spLine="-1" v:horizAlign="1"/><v:tabList/>Subscribe<tspan
						class="st25" v:langID="1029"> </tspan>to: &#60;home_id&#62;/&#60;<tspan class="st25" v:langID="1029">gw_id</tspan>&#62;/add_device</text>		</g>
		<g id="shape235-171" v:mID="235" v:groupContext="shape" transform="translate(77.7608,-75.2112)">
			<title>Sheet.235</title>
			<desc>Device ID, Vendor, Device Type</desc>
			<v:textBlock v:margins="rect(4,4,4,4)" v:tabSpace="42.5197"/>
			<v:textRect cx="134.11" cy="384.496" width="268.23" height="15.874"/>
			<rect x="0" y="376.559" width="268.221" height="15.874" class="st13"/>
			<text x="53.78" y="387.5" class="st26" v:langID="1033"><v:paragraph v:spLine="-1" v:horizAlign="1"/><v:tabList/>Device ID<tspan
						class="st29">, Vendor, Device Type</tspan></text>		</g>
		<g id="shape236-175" v:mID="236" v:groupContext="shape" transform="translate(406.219,-78.5197)">
			<title>Sheet.236</title>
			<desc>MQTT Connection</desc>
			<v:textBlock v:margins="rect(4,4,4,4)" v:tabSpace="42.5197"/>
			<v:textRect cx="90.8783" cy="384.496" width="181.76" height="15.874"/>
			<rect x="0" y="376.559" width="181.757" height="15.874" class="st13"/>
			<text x="43.23" y="387.5" class="st14" v:langID="1033"><v:paragraph v:spLine="-1" v:horizAlign="1"/><v:tabList/>MQTT Connection</text>		</g>
		<g id="shape237-178" v:mID="237" v:groupContext="shape" transform="translate(78.4322,-55.2024)">
			<title>Sheet.237</title>
			<path d="M0 392.43 L265.74 392.43" class="st27"/>
		</g>
		<g id="shape238-183" v:mID="238" v:groupContext="shape" transform="translate(77.7608,-54.9921)">
			<title>Sheet.238</title>
			<desc>MQTT2GO Command</desc>
			<v:textBlock v:margins="rect(4,4,4,4)" v:tabSpace="42.5197"/>
			<v:textRect cx="134.11" cy="384.496" width="268.23" height="15.874"/>
			<rect x="0" y="376.559" width="268.221" height="15.874" class="st13"/>
			<text x="78.98" y="387.5" class="st14" v:langID="1033"><v:paragraph v:spLine="-1" v:horizAlign="1"/><v:tabList/>MQTT2GO Command</text>		</g>
		<g id="shape239-186" v:mID="239" v:groupContext="shape" transform="translate(587.38,-35.4331) scale(-1,1)">
			<title>Sheet.239</title>
			<path d="M0 392.43 L180.85 392.43" class="st30"/>
		</g>
		<g id="shape240-191" v:mID="240" v:groupContext="shape" transform="translate(406.306,-35.4331)">
			<title>Sheet.240</title>
			<desc>MQTT Vendor’s Command</desc>
			<v:textBlock v:margins="rect(4,4,4,4)" v:tabSpace="42.5197"/>
			<v:textRect cx="90.8783" cy="384.496" width="181.76" height="15.874"/>
			<rect x="0" y="376.559" width="181.757" height="15.874" class="st13"/>
			<text x="21.34" y="387.5" class="st14" v:langID="1033"><v:paragraph v:spLine="-1" v:horizAlign="1"/><v:tabList/>MQTT Vendor’s Command</text>		</g>
		<g id="shape242-194" v:mID="242" v:groupContext="shape" transform="translate(79.9317,-94.7113) rotate(0.212373)">
			<title>Sheet.242</title>
			<path d="M0 392.43 L265.61 392.43" class="st27"/>
		</g>
		<g id="shape243-199" v:mID="243" v:groupContext="shape" transform="translate(77.6923,-97.5118)">
			<title>Sheet.243</title>
			<desc>Publish to: &#60;home_id&#62;/&#60;gw_id&#62;/add_device</desc>
			<v:textBlock v:margins="rect(4,4,4,4)" v:tabSpace="42.5197"/>
			<v:textRect cx="134.11" cy="384.496" width="268.23" height="15.874"/>
			<rect x="0" y="376.559" width="268.221" height="15.874" class="st13"/>
			<text x="14.33" y="387.5" class="st14" v:langID="1033"><v:paragraph v:spLine="-1" v:horizAlign="1"/><v:tabList/>Publish<tspan
						class="st25" v:langID="1029"> </tspan>to: &#60;home_id&#62;/&#60;<tspan class="st25" v:langID="1029">gw_id</tspan>&#62;/add_device</text>		</g>
		<g id="group285-204" transform="translate(347.194,-226.772)" v:mID="285" v:groupContext="group">
			<title>Sheet.285</title>
			<g id="group286-205" v:mID="286" v:groupContext="group">
				<title>Wifi_Router</title>
				<g id="shape287-206" v:mID="287" v:groupContext="shape" transform="translate(26.3217,-18.2227)">
					<title>Sheet.287</title>
					<path d="M2.02 392.43 C0.81 392.43 0 391.62 0 390.41 L0 374.21 C0 373 0.81 372.19 2.02 372.19 C3.24 372.19 4.05
								 373 4.05 374.21 L4.05 390.41 C4.05 391.62 3.24 392.43 2.02 392.43 Z" class="st31"/>
				</g>
				<g id="shape288-208" v:mID="288" v:groupContext="shape" transform="translate(0,-6.07424)">
					<title>Sheet.288</title>
					<path d="M6.07 376.24 L50.62 376.24 C54.06 376.24 56.69 378.87 56.69 382.31 L56.69 386.36 C56.69 389.8 54.06
								 392.43 50.62 392.43 L6.07 392.43 C2.63 392.43 0 389.8 0 386.36 L0 382.31 C0 378.87 2.63 376.24 6.07
								 376.24 Z" class="st32"/>
				</g>
				<g id="shape289-210" v:mID="289" v:groupContext="shape" transform="translate(44.5444,-12.1485)">
					<title>Sheet.289</title>
					<path d="M4.05 392.43 L2.02 392.43 C0.81 392.43 0 391.62 0 390.41 C0 389.19 0.81 388.38 2.02 388.38 L4.05 388.38
								 C5.26 388.38 6.07 389.19 6.07 390.41 C6.07 391.62 5.26 392.43 4.05 392.43 Z" class="st33"/>
				</g>
				<g id="shape290-212" v:mID="290" v:groupContext="shape" transform="translate(36.4454,-12.1485)">
					<title>Sheet.290</title>
					<path d="M4.05 392.43 L2.02 392.43 C0.81 392.43 0 391.62 0 390.41 C0 389.19 0.81 388.38 2.02 388.38 L4.05 388.38
								 C5.26 388.38 6.07 389.19 6.07 390.41 C6.07 391.62 5.26 392.43 4.05 392.43 Z" class="st34"/>
				</g>
				<g id="shape291-214" v:mID="291" v:groupContext="shape" transform="translate(26.3217,-34.4207)">
					<title>Sheet.291</title>
					<path d="M8.1 392.43 C6.88 392.43 6.07 391.62 6.07 390.41 C6.07 388.18 4.25 386.36 2.02 386.36 C0.81 386.36 0
								 385.55 0 384.33 C0 383.12 0.81 382.31 2.02 382.31 C6.48 382.31 10.12 385.95 10.12 390.41 C10.12
								 391.62 9.31 392.43 8.1 392.43 Z" class="st35"/>
				</g>
				<g id="shape292-216" v:mID="292" v:groupContext="shape" transform="translate(26.3217,-34.4207)">
					<title>Sheet.292</title>
					<path d="M14.17 392.43 C12.96 392.43 12.15 391.62 12.15 390.41 C12.15 384.74 7.69 380.29 2.02 380.29 C0.81 380.29
								 0 379.48 0 378.26 C0 377.05 0.81 376.24 2.02 376.24 C9.92 376.24 16.2 382.51 16.2 390.41 C16.2 391.62
								 15.39 392.43 14.17 392.43 Z" class="st35"/>
				</g>
				<g id="shape293-218" v:mID="293" v:groupContext="shape" transform="translate(26.3217,-34.4207)">
					<title>Sheet.293</title>
					<path d="M20.25 392.43 C19.03 392.43 18.22 391.62 18.22 390.41 C18.22 381.5 10.93 374.21 2.02 374.21 C0.81 374.21
								 0 373.4 0 372.19 C0 370.97 0.81 370.16 2.02 370.16 C13.16 370.16 22.27 379.27 22.27 390.41 C22.27
								 391.62 21.46 392.43 20.25 392.43 Z" class="st35"/>
				</g>
				<g id="shape294-220" v:mID="294" v:groupContext="shape" transform="translate(8.09899,0)">
					<title>Sheet.294</title>
					<path d="M8.1 392.43 L2.02 392.43 C0.81 392.43 0 391.62 0 390.41 C0 389.19 0.81 388.38 2.02 388.38 L8.1 388.38
								 C9.31 388.38 10.12 389.19 10.12 390.41 C10.12 391.62 9.31 392.43 8.1 392.43 Z" class="st36"/>
				</g>
				<g id="shape295-222" v:mID="295" v:groupContext="shape" transform="translate(38.4702,0)">
					<title>Sheet.295</title>
					<path d="M8.1 392.43 L2.02 392.43 C0.81 392.43 0 391.62 0 390.41 C0 389.19 0.81 388.38 2.02 388.38 L8.1 388.38
								 C9.31 388.38 10.12 389.19 10.12 390.41 C10.12 391.62 9.31 392.43 8.1 392.43 Z" class="st36"/>
				</g>
			</g>
			<g id="shape296-224" v:mID="296" v:groupContext="shape" transform="translate(5.87941,-11.3016)">
				<title>Sheet.296</title>
				<rect x="0" y="386.764" width="19.8425" height="5.66929" rx="2.83465" ry="2.83465" class="st37"/>
			</g>
		</g>
		<g id="group329-226" transform="translate(564.378,-276.378)" v:mID="329" v:groupContext="group">
			<title>Sheet.329</title>
			<g id="shape330-227" v:mID="330" v:groupContext="shape" transform="translate(4.15359,3.41061E-13)">
				<title>Sheet.330</title>
				<rect x="0" y="375.472" width="40.1211" height="16.9618" rx="2.83465" ry="2.83465" class="st38"/>
			</g>
			<g id="shape331-229" v:mID="331" v:groupContext="shape" transform="translate(1.38099,-13.0476)">
				<title>Sheet.331</title>
				<rect x="0" y="347.093" width="45.3402" height="45.3402" class="st38"/>
			</g>
			<g id="shape332-231" v:mID="332" v:groupContext="shape" transform="translate(0,-11.9927)">
				<title>Sheet.332</title>
				<path d="M4.52 389.71 A1.63094 1.63094 0 0 1 2.89 388.08 L2.89 349.02 A1.63094 1.63094 0 0 1 4.52 347.38 L43.58 347.38
							 A1.63094 1.63094 0 0 1 45.21 349.02 L45.21 388.08 A1.63094 1.63094 0 0 1 43.58 389.71 L4.52 389.71 ZM1.63
							 392.43 L46.56 392.43 A1.63094 1.63094 -180 0 0 48.19 390.8 L48.19 345.88 A1.63094 1.63094 -180 0 0 46.56
							 344.24 L1.63 344.24 A1.63094 1.63094 -180 0 0 0 345.88 L0 390.8 A1.63094 1.63094 -180 0 0 1.63 392.43
							 Z" class="st39"/>
			</g>
			<g id="shape333-233" v:mID="333" v:groupContext="shape" transform="translate(5.78453,-37.1855)">
				<title>Sheet.333</title>
				<desc>1</desc>
				<v:textBlock v:margins="rect(4,0,4,0)" v:tabSpace="42.5197"/>
				<v:textRect cx="2.60951" cy="387.541" width="5.22" height="9.78565"/>
				<rect x="0" y="382.648" width="5.21901" height="9.78565" class="st40"/>
				<text x="1.31" y="389.34" class="st41" v:langID="1033"><v:paragraph v:horizAlign="1"/><v:tabList/>1</text>			</g>
			<g id="shape334-236" v:mID="334" v:groupContext="shape" transform="translate(13.613,-37.1855)">
				<title>Sheet.334</title>
				<desc>4</desc>
				<v:textBlock v:margins="rect(4,0,4,0)" v:tabSpace="42.5197"/>
				<v:textRect cx="2.60951" cy="387.541" width="5.22" height="9.78565"/>
				<rect x="0" y="382.648" width="5.21901" height="9.78565" class="st40"/>
				<text x="1.01" y="389.34" class="st41" v:langID="1033"><v:paragraph v:horizAlign="1"/><v:tabList/>4</text>			</g>
			<g id="shape335-239" v:mID="335" v:groupContext="shape" transform="translate(21.4416,-37.1855)">
				<title>Sheet.335</title>
				<desc>5</desc>
				<v:textBlock v:margins="rect(4,0,4,0)" v:tabSpace="42.5197"/>
				<v:textRect cx="2.60951" cy="387.541" width="5.22" height="9.78565"/>
				<rect x="0" y="382.648" width="5.21901" height="9.78565" class="st40"/>
				<text x="1.11" y="389.34" class="st41" v:langID="1033"><v:paragraph v:horizAlign="1"/><v:tabList/>5</text>			</g>
			<g id="shape336-242" v:mID="336" v:groupContext="shape" transform="translate(29.2701,-37.1855)">
				<title>Sheet.336</title>
				<desc>9</desc>
				<v:textBlock v:margins="rect(4,0,4,0)" v:tabSpace="42.5197"/>
				<v:textRect cx="2.60951" cy="387.541" width="5.22" height="9.78565"/>
				<rect x="0" y="382.648" width="5.21901" height="9.78565" class="st40"/>
				<text x="1.03" y="389.34" class="st41" v:langID="1033"><v:paragraph v:horizAlign="1"/><v:tabList/>9</text>			</g>
			<g id="shape337-245" v:mID="337" v:groupContext="shape" transform="translate(37.0986,-37.1855)">
				<title>Sheet.337</title>
				<desc>7</desc>
				<v:textBlock v:margins="rect(4,0,4,0)" v:tabSpace="42.5197"/>
				<v:textRect cx="2.60951" cy="387.541" width="5.22" height="9.78565"/>
				<rect x="0" y="382.648" width="5.21901" height="9.78565" class="st42"/>
				<text x="1.28" y="389.34" class="st41" v:langID="1033"><v:paragraph v:horizAlign="1"/><v:tabList/>7</text>			</g>
			<g id="shape338-248" v:mID="338" v:groupContext="shape" transform="translate(20.7892,-20.2237)">
				<title>Sheet.338</title>
				<ellipse cx="3.42498" cy="389.009" rx="3.42498" ry="3.42498" class="st42"/>
			</g>
			<g id="shape339-250" v:mID="339" v:groupContext="shape" transform="translate(11.0035,-21.168)">
				<title>Sheet.339</title>
				<ellipse cx="2.48064" cy="389.953" rx="2.48064" ry="2.48064" class="st43"/>
			</g>
			<g id="shape340-252" v:mID="340" v:groupContext="shape" transform="translate(32.4635,-21.0392)">
				<title>Sheet.340</title>
				<ellipse cx="2.48064" cy="389.953" rx="2.48064" ry="2.48064" class="st43"/>
			</g>
			<g id="shape341-254" v:mID="341" v:groupContext="shape" transform="translate(12.7976,-2.93569)">
				<title>Sheet.341</title>
				<rect x="0" y="385.91" width="22.8332" height="6.52376" rx="3.26188" ry="3.26188" class="st37"/>
			</g>
			<g id="shape342-256" v:mID="342" v:groupContext="shape" transform="translate(5.78453,-51.5377)">
				<title>Sheet.342</title>
				<path d="M0 392.43 L36.15 392.43" class="st44"/>
			</g>
			<g id="shape343-259" v:mID="343" v:groupContext="shape" transform="translate(5.78453,-32.739)">
				<title>Sheet.343</title>
				<path d="M0 392.43 L36.15 392.43" class="st44"/>
			</g>
		</g>
		<g id="group344-262" transform="translate(51.1653,-85.0394)" v:mID="344" v:groupContext="group">
			<title>Sheet.344</title>
			<g id="shape345-263" v:mID="345" v:groupContext="shape" transform="translate(0,-0.954847)">
				<title>Sheet.345</title>
				<ellipse cx="9.56693" cy="382.867" rx="9.56693" ry="9.56693" class="st45"/>
			</g>
			<g id="shape346-265" v:mID="346" v:groupContext="shape" transform="translate(0.708666,0)">
				<title>Sheet.346</title>
				<desc>1</desc>
				<v:textBlock v:margins="rect(4,4,4,4)" v:tabSpace="42.5197"/>
				<v:textRect cx="8.32323" cy="382.867" width="16.65" height="19.1339"/>
				<rect x="0" y="373.3" width="16.6465" height="19.1339" class="st13"/>
				<text x="4.43" y="388.27" class="st46" v:langID="1029"><v:paragraph v:horizAlign="1"/><v:tabList/>1</text>			</g>
		</g>
	</g>
</svg>
